{"title":"[OOTR] Naruto Episodes 81-96","uid":7994980,"size":882285903,"categoryP":"video","categoryS":"tv_shows","magnet":"?xt=urn:btih:6c661c10de8d46d68f70d00420f2b4f8a64a547f&amp;dn=%5BOOTR%5D+Naruto+Episodes+81-96&amp;tr=udp%3A%2F%2Ftracker.openbittorrent.com%3A80&amp;tr=udp%3A%2F%2Fopen.demonii.com%3A1337&amp;tr=udp%3A%2F%2Ftracker.coppersurfer.tk%3A6969&amp;tr=udp%3A%2F%2Fexodus.desync.com%3A6969","seeders":1,"leechers":0,"uploader":"OOTR","files":1,"time":1357587785,"description":"[OOTR] Naruto Episodes 81-96\n\n\nEdited to omit intros/outros and promote continuity.\n\nPlease SEED and enjoy! Leave a comment if you like.\n\nFormat                                   : MPEG-4\nFormat profile                           : Base Media / Version 2\nCodec ID                                 : mp42\nFile size                                : 841 MiB\nDuration                                 : 5h 11mn\nOverall bit rate mode                    : Variable\nOverall bit rate                         : 378 Kbps\nEncoded date                             : UTC 2013-01-07 16:05:38\nTagged date                              : UTC 2013-01-07 16:05:38\nÂ©TIM                                     : 00:00:00:00\nÂ©TSC                                     : 24000\nÂ©TSZ                                     : 1001\n\nVideo\nID                                       : 1\nFormat                                   : AVC\nFormat/Info                              : Advanced Video Codec\nFormat profile                           : &lt;a class=&quot;__cf_email__&quot; href=&quot;/cdn-cgi/l/email-protection&quot; data-cfemail=&quot;efa7868887afa3dcc1df&quot;&gt;[email&amp;#160;protected]&lt;/a&gt;&lt;script cf-hash='f9e31' type=&quot;text/javascript&quot;&gt;\n/* &lt;![CDATA[ */!function(){try{var t=&quot;currentScript&quot;in document?document.currentScript:function(){for(var t=document.getElementsByTagName(&quot;script&quot;),e=t.length;e--;)if(t[e].getAttribute(&quot;cf-hash&quot;))return t[e]}();if(t&amp;&amp;t.previousSibling){var e,r,n,i,c=t.previousSibling,a=c.getAttribute(&quot;data-cfemail&quot;);if(a){for(e=&quot;&quot;,r=parseInt(a.substr(0,2),16),n=2;a.length-n;n+=2)i=parseInt(a.substr(n,2),16)^r,e+=String.fromCharCode(i);e=document.createTextNode(e),c.parentNode.replaceChild(e,c)}}}catch(u){}}();/* ]]&gt; */&lt;/script&gt;\nFormat settings, CABAC                   : Yes\nFormat settings, ReFrames                : 3 frames\nCodec ID                                 : avc1\nCodec ID/Info                            : Advanced Video Coding\nDuration                                 : 5h 11mn\nSource duration                          : 5h 11mn\nBit rate                                 : 248 Kbps\nWidth                                    : 640 pixels\nHeight                                   : 480 pixels\nDisplay aspect ratio                     : 4:3\nFrame rate mode                          : Variable\nFrame rate                               : 23.976 fps\nMinimum frame rate                       : 23.976 fps\nMaximum frame rate                       : 24.000 fps\nStandard                                 : NTSC\nColor space                              : YUV\nChroma subsampling                       : 4:2:0\nBit depth                                : 8 bits\nScan type                                : Progressive\nBits/(Pixel*Frame)                       : 0.034\nStream size                              : 553 MiB (66%)\nSource stream size                       : 553 MiB (66%)\nLanguage                                 : English\nEncoded date                             : UTC 2013-01-07 16:05:38\nTagged date                              : UTC 2013-01-07 16:05:38\nmdhd_Duration                            : 18684458\nColor primaries                          : BT.601 NTSC\nTransfer characteristics                 : BT.601\nMatrix coefficients                      : BT.601\n\nAudio\nID                                       : 2\nFormat                                   : AAC\nFormat/Info                              : Advanced Audio Codec\nFormat profile                           : LC\nCodec ID                                 : 40\nDuration                                 : 5h 11mn\nSource duration                          : 5h 11mn\nBit rate mode                            : Variable\nBit rate                                 : 125 Kbps\nMaximum bit rate                         : 212 Kbps\nChannel(s)                               : 2 channels\nChannel positions                        : Front: L R\nSampling rate                            : 48.0 KHz\nCompression mode                         : Lossy\nStream size                              : 279 MiB (33%)","torrent":{"xt":"urn:btih:6c661c10de8d46d68f70d00420f2b4f8a64a547f","amp;dn":"%5BOOTR%5D+Naruto+Episodes+81-96","amp;tr":["udp%3A%2F%2Ftracker.openbittorrent.com%3A80","udp%3A%2F%2Fopen.demonii.com%3A1337","udp%3A%2F%2Ftracker.coppersurfer.tk%3A6969","udp%3A%2F%2Fexodus.desync.com%3A6969"],"infoHash":"6c661c10de8d46d68f70d00420f2b4f8a64a547f","infoHashBuffer":{"type":"Buffer","data":[108,102,28,16,222,141,70,214,143,112,208,4,32,242,180,248,166,74,84,127]},"announce":[],"urlList":[]}}